<!DOCTYPE svg PUBLIC "-//W3C//DTD SVG 1.1//EN"
 "http://www.w3.org/Graphics/SVG/1.1/DTD/svg11.dtd">
<svg version="1.1"
 width="780px" height="296px"
 viewBox="0 0 780 296"
 xmlns="http://www.w3.org/2000/svg" shape-rendering="crispEdges"
 stroke-width="1" text-rendering="geometricPrecision">
<polygon fill="white" points="178,7 210,7 210,16 178,16"/>
<text x="195" y="16" textLength="31" font-family="Helvetica" font-size="12" fill="black" text-anchor="middle">

Client
</text>
<polygon fill="white" points="566,7 602,7 602,16 566,16"/>
<text x="585" y="16" textLength="35" font-family="Helvetica" font-size="12" fill="black" text-anchor="middle">

Server
</text>
<line x1="195" y1="22" x2="195" y2="58" stroke="black"/>
<line x1="585" y1="22" x2="585" y2="58" stroke="black"/>
<line x1="195" y1="33" x2="585" y2="41" stroke="black"/>
<polygon fill="black" points="585,41 575,47 575,35"/>
<polygon fill="white" points="373,27 405,27 405,36 373,36"/>
<text x="374" y="36" textLength="30" font-family="Helvetica" font-size="12" fill="black">
data1
</text>
<line x1="195" y1="58" x2="195" y2="94" stroke="black"/>
<line x1="585" y1="58" x2="585" y2="94" stroke="black"/>
<line x1="195" y1="69" x2="486" y2="77" stroke="black"/>
<line x1="482" y1="73" x2="490" y2="81" stroke="black"/>
<line x1="490" y1="73" x2="482" y2="81" stroke="black"/>
<polygon fill="white" points="373,63 405,63 405,72 373,72"/>
<text x="374" y="72" textLength="30" font-family="Helvetica" font-size="12" fill="black">
data2
</text>
<line x1="195" y1="94" x2="195" y2="130" stroke="black"/>
<line x1="585" y1="94" x2="585" y2="130" stroke="black"/>
<line x1="195" y1="105" x2="585" y2="113" stroke="black"/>
<polygon fill="black" points="585,113 575,119 575,107"/>
<polygon fill="white" points="373,99 405,99 405,108 373,108"/>
<text x="374" y="108" textLength="30" font-family="Helvetica" font-size="12" fill="black">
data3
</text>
<line x1="195" y1="130" x2="195" y2="166" stroke="black"/>
<line x1="585" y1="130" x2="585" y2="166" stroke="black"/>
<line x1="585" y1="141" x2="195" y2="149" stroke="black"/>
<polygon fill="black" points="195,149 205,155 205,143"/>
<polygon fill="white" points="356,135 422,135 422,144 356,144"/>
<text x="357" y="144" textLength="64" font-family="Helvetica" font-size="12" fill="black">
ack1, nack2
</text>
<line x1="195" y1="166" x2="195" y2="202" stroke="black"/>
<line x1="585" y1="166" x2="585" y2="202" stroke="black"/>
<line x1="195" y1="177" x2="585" y2="215" stroke="black"/>
<polygon fill="black" points="585,215 575,221 575,209"/>
<polygon fill="white" points="373,186 405,186 405,195 373,195"/>
<text x="374" y="195" textLength="30" font-family="Helvetica" font-size="12" fill="black">
data2
</text>
<line x1="195" y1="202" x2="195" y2="227" stroke="black"/>
<line x1="585" y1="202" x2="585" y2="227" stroke="black"/>
<line x1="195" y1="227" x2="195" y2="263" stroke="black"/>
<line x1="585" y1="227" x2="585" y2="263" stroke="black"/>
<line x1="585" y1="238" x2="195" y2="246" stroke="black"/>
<polygon fill="black" points="195,246 205,252 205,240"/>
<polygon fill="white" points="376,232 403,232 403,241 376,241"/>
<text x="377" y="241" textLength="25" font-family="Helvetica" font-size="12" fill="black">
ack3
</text>
<line x1="195" y1="263" x2="195" y2="288" stroke="black"/>
<line x1="585" y1="263" x2="585" y2="288" stroke="black"/>
<line x1="195" y1="274" x2="195" y2="296" stroke="black"/>
<line x1="585" y1="274" x2="585" y2="296" stroke="black"/>
</svg>
